<?xml version="1.0" encoding="UTF-8" standalone="no"?>
<svg
   width="16"
   height="16"
   version="1.1"
   id="svg1"
   sodipodi:docname="DebugConsole.svg"
   inkscape:version="1.3.2 (091e20e, 2023-11-25, custom)"
   xmlns:inkscape="http://www.inkscape.org/namespaces/inkscape"
   xmlns:sodipodi="http://sodipodi.sourceforge.net/DTD/sodipodi-0.dtd"
   xmlns="http://www.w3.org/2000/svg"
   xmlns:svg="http://www.w3.org/2000/svg">
  <defs
     id="defs1" />
  <sodipodi:namedview
     id="namedview1"
     pagecolor="#ffffff"
     bordercolor="#000000"
     borderopacity="0.25"
     inkscape:showpageshadow="2"
     inkscape:pageopacity="0.0"
     inkscape:pagecheckerboard="0"
     inkscape:deskcolor="#d1d1d1"
     inkscape:zoom="26.198733"
     inkscape:cx="5.3437699"
     inkscape:cy="5.8972318"
     inkscape:window-width="1920"
     inkscape:window-height="1017"
     inkscape:window-x="-8"
     inkscape:window-y="-8"
     inkscape:window-maximized="1"
     inkscape:current-layer="svg1" />
  <path
     id="path1"
     d="M 3 1 C 1.8954011 1 1 1.8954011 1 3 L 1 4 L 15 4 L 15 3 C 15 1.8954011 14.104569 1 13 1 L 3 1 z M 12 2 L 13 2 L 13 3 L 12 3 L 12 2 z M 1 5 L 1 13 C 1 14.104599 1.8954311 15 3 15 L 13 15 C 14.104599 15 15 14.104599 15 13 L 15 5 L 1 5 z M 3.5996094 9.5 L 5.8007812 11.75 L 3.5996094 14 L 2.5 12.875 L 3.5996094 11.75 L 2.5 10.625 L 3.5996094 9.5 z M 5.8007812 12.875 L 8 12.875 L 8 14 L 5.8007812 14 L 5.8007812 12.875 z "
     style="fill:#efefef;fill-opacity:1" />
</svg>
